<svg width="11" height="11" viewBox="0 0 11 11" fill="none" xmlns="http://www.w3.org/2000/svg">
<path d="M0.81988 11.0001C0.619314 11.0001 0.421834 10.9214 0.274496 10.774C0.0561884 10.5557 -0.0109237 10.2287 0.103244 9.94169L1.64605 6.08467C1.6854 5.98824 1.74325 5.89953 1.81731 5.82625L7.21714 0.42641C7.51876 0.12479 8.00629 0.12479 8.30791 0.42641L10.6221 2.74063C10.9237 3.04224 10.9237 3.52977 10.6221 3.83139L7.5365 6.91701C7.23488 7.21863 6.74736 7.21863 6.44574 6.91701C6.14412 6.61539 6.14412 6.12787 6.44574 5.82625L8.98598 3.28601L7.76253 2.06256L3.0207 6.80516L2.20455 8.84398L4.24415 8.02861L4.35754 7.91444L4.13152 7.68842C3.8299 7.3868 3.8299 6.89927 4.13152 6.59765C4.43314 6.29603 4.92067 6.29603 5.22229 6.59765L5.99369 7.36906C6.29531 7.67068 6.29531 8.1582 5.99369 8.45982L5.22229 9.23123C5.14823 9.30528 5.06029 9.36314 4.9631 9.40248L1.10607 10.9453C1.0135 10.9823 0.916305 11.0001 0.81988 11.0001Z" fill="black"/>
</svg>
