<svg width="18" height="18" viewBox="0 0 18 18" fill="none" xmlns="http://www.w3.org/2000/svg">
<mask id="path-1-outside-1_53_130" maskUnits="userSpaceOnUse" x="0.799805" y="1.69995" width="16" height="14" fill="black">
<rect fill="white" x="0.799805" y="1.69995" width="16" height="14"/>
<path d="M9.0718 13.3773L8.9998 13.446L8.9206 13.3773C5.5006 10.4179 3.2398 8.46093 3.2398 6.47652C3.2398 5.10322 4.3198 4.07325 5.7598 4.07325C6.8686 4.07325 7.9486 4.7599 8.3302 5.69374H9.6694C10.051 4.7599 11.131 4.07325 12.2398 4.07325C13.6798 4.07325 14.7598 5.10322 14.7598 6.47652C14.7598 8.46093 12.499 10.4179 9.0718 13.3773ZM12.2398 2.69995C10.987 2.69995 9.7846 3.25614 8.9998 4.12818C8.215 3.25614 7.0126 2.69995 5.7598 2.69995C3.5422 2.69995 1.7998 4.35477 1.7998 6.47652C1.7998 9.06518 4.2478 11.1869 7.9558 14.3936L8.9998 15.3L10.0438 14.3936C13.7518 11.1869 16.1998 9.06518 16.1998 6.47652C16.1998 4.35477 14.4574 2.69995 12.2398 2.69995Z"/>
</mask>
<path d="M9.0718 13.3773L8.9998 13.446L8.9206 13.3773C5.5006 10.4179 3.2398 8.46093 3.2398 6.47652C3.2398 5.10322 4.3198 4.07325 5.7598 4.07325C6.8686 4.07325 7.9486 4.7599 8.3302 5.69374H9.6694C10.051 4.7599 11.131 4.07325 12.2398 4.07325C13.6798 4.07325 14.7598 5.10322 14.7598 6.47652C14.7598 8.46093 12.499 10.4179 9.0718 13.3773ZM12.2398 2.69995C10.987 2.69995 9.7846 3.25614 8.9998 4.12818C8.215 3.25614 7.0126 2.69995 5.7598 2.69995C3.5422 2.69995 1.7998 4.35477 1.7998 6.47652C1.7998 9.06518 4.2478 11.1869 7.9558 14.3936L8.9998 15.3L10.0438 14.3936C13.7518 11.1869 16.1998 9.06518 16.1998 6.47652C16.1998 4.35477 14.4574 2.69995 12.2398 2.69995Z" fill="#3F3F3F"/>
<path d="M9.0718 13.3773L8.9998 13.446L8.9206 13.3773C5.5006 10.4179 3.2398 8.46093 3.2398 6.47652C3.2398 5.10322 4.3198 4.07325 5.7598 4.07325C6.8686 4.07325 7.9486 4.7599 8.3302 5.69374H9.6694C10.051 4.7599 11.131 4.07325 12.2398 4.07325C13.6798 4.07325 14.7598 5.10322 14.7598 6.47652C14.7598 8.46093 12.499 10.4179 9.0718 13.3773ZM12.2398 2.69995C10.987 2.69995 9.7846 3.25614 8.9998 4.12818C8.215 3.25614 7.0126 2.69995 5.7598 2.69995C3.5422 2.69995 1.7998 4.35477 1.7998 6.47652C1.7998 9.06518 4.2478 11.1869 7.9558 14.3936L8.9998 15.3L10.0438 14.3936C13.7518 11.1869 16.1998 9.06518 16.1998 6.47652C16.1998 4.35477 14.4574 2.69995 12.2398 2.69995Z" stroke="#3F3F3F" stroke-width="0.4" mask="url(#path-1-outside-1_53_130)"/>
</svg>
