<svg width="82" height="39" viewBox="0 0 82 39" fill="none" xmlns="http://www.w3.org/2000/svg">
<rect x="1.7583" y="10.2727" width="70.4091" height="27.2273" stroke="white" stroke-width="3"/>
<path d="M17.6221 31.4174C16.1712 31.4174 15.1406 31.0144 14.5303 30.2083C13.9315 29.3908 13.6321 28.2392 13.6321 26.7538V21.762C13.6321 20.2304 13.9315 19.0674 14.5303 18.2729C15.129 17.4783 16.1597 17.0811 17.6221 17.0811C18.9924 17.0811 19.9654 17.4265 20.5412 18.1174C21.1169 18.8083 21.4048 19.8044 21.4048 21.1056V22.2801H18.9521V21.0711C18.9521 20.5759 18.929 20.1901 18.883 19.9138C18.8369 19.6259 18.716 19.3956 18.5203 19.2229C18.336 19.0386 18.0424 18.9465 17.6394 18.9465C17.2248 18.9465 16.9139 19.0444 16.7066 19.2401C16.4994 19.4244 16.3612 19.6777 16.2921 20.0001C16.2345 20.3111 16.2057 20.7198 16.2057 21.2265V27.2892C16.2057 28.0838 16.3094 28.6595 16.5166 29.0165C16.7239 29.362 17.0981 29.5347 17.6394 29.5347C18.0309 29.5347 18.3187 29.4426 18.503 29.2583C18.6987 29.0741 18.8197 28.8323 18.8657 28.5329C18.9233 28.222 18.9521 27.8132 18.9521 27.3065V26.0456H21.4048V27.1683C21.4048 28.5156 21.1227 29.5635 20.5584 30.312C19.9942 31.0489 19.0154 31.4174 17.6221 31.4174Z" fill="white"/>
<path d="M24.9118 17.2365H28.28C29.754 17.2365 30.8537 17.5186 31.5791 18.0829C32.3046 18.6356 32.6673 19.5914 32.6673 20.9501C32.6673 21.8368 32.5349 22.5623 32.27 23.1265C32.0167 23.6792 31.5734 24.0823 30.94 24.3356L32.8918 31.2274H30.3355L28.66 24.8192H27.4509V31.2274H24.9118V17.2365ZM28.2628 23.2301C28.9882 23.2301 29.5006 23.0632 29.8 22.7292C30.1109 22.3953 30.2664 21.8483 30.2664 21.0883C30.2664 20.3514 30.1282 19.8159 29.8518 19.482C29.587 19.148 29.1034 18.9811 28.4009 18.9811H27.4509V23.2301H28.2628Z" fill="white"/>
<path d="M36.3904 17.2365H38.9122V31.2274H36.3904V17.2365Z" fill="white"/>
<path d="M46.3289 31.4174C45.0623 31.4174 44.1123 31.0605 43.4789 30.3465C42.8571 29.6326 42.5174 28.5674 42.4599 27.1511L44.6535 26.7192C44.688 27.6059 44.8262 28.2853 45.068 28.7574C45.3214 29.218 45.7129 29.4483 46.2426 29.4483C46.6341 29.4483 46.922 29.3332 47.1062 29.1029C47.302 28.8611 47.3999 28.5386 47.3999 28.1356C47.3999 27.5829 47.2732 27.1165 47.0199 26.7365C46.778 26.345 46.3923 25.9189 45.8626 25.4583L44.1008 23.9211C43.5596 23.4604 43.1508 22.9653 42.8744 22.4356C42.6096 21.9059 42.4771 21.2726 42.4771 20.5356C42.4771 19.4417 42.7938 18.5953 43.4271 17.9965C44.072 17.3862 44.9586 17.0811 46.0871 17.0811C47.2962 17.0811 48.1599 17.4265 48.678 18.1174C49.2077 18.7968 49.5129 19.718 49.5935 20.8811L47.3999 21.2611C47.3653 20.5011 47.2559 19.9311 47.0717 19.5511C46.8989 19.1595 46.5535 18.9638 46.0353 18.9638C45.6668 18.9638 45.3789 19.0904 45.1717 19.3438C44.9644 19.5856 44.8608 19.8965 44.8608 20.2765C44.8608 20.7256 44.9471 21.1056 45.1199 21.4165C45.3041 21.7159 45.5977 22.0383 46.0008 22.3838L47.7453 23.9211C48.4017 24.4853 48.9141 25.0898 49.2826 25.7347C49.6511 26.3795 49.8353 27.128 49.8353 27.9801C49.8353 28.648 49.6856 29.2411 49.3862 29.7592C49.0983 30.2774 48.6896 30.6862 48.1599 30.9856C47.6302 31.2735 47.0199 31.4174 46.3289 31.4174Z" fill="white"/>
<path d="M53.0677 17.2365H57.1786C59.5623 17.2365 60.7541 18.5608 60.7541 21.2092C60.7541 23.7426 59.5047 25.0092 57.0059 25.0092H55.6068V31.2274H53.0677V17.2365ZM56.5914 23.2129C57.2823 23.2129 57.7486 23.0689 57.9905 22.7811C58.2323 22.4817 58.3532 21.952 58.3532 21.192C58.3532 20.6392 58.3129 20.2189 58.2323 19.9311C58.1517 19.6317 57.9847 19.4071 57.7314 19.2574C57.4896 19.1077 57.1096 19.0329 56.5914 19.0329H55.6068V23.2129H56.5914Z" fill="white"/>
<path d="M77.5536 33.8181V29.9318H80.1446V2.29541H9.32637V4.88632H5.87183" stroke="white" stroke-width="3"/>
</svg>
