<?xml version="1.0" encoding="UTF-8" standalone="no"?><svg viewBox="0 0 800 800" xmlns="http://www.w3.org/2000/svg" xmlns:xlink="http://www.w3.org/1999/xlink"><style>:root>svg{display:none}:root>svg:target{display:block}</style><svg viewBox="0 -4.5 20 20" id="arrow-down" xmlns="http://www.w3.org/2000/svg"><path d="M20 1.39 18.594 0 9.987 8.261l-.918-.881.005.005L1.427.045 0 1.414 9.987 11 20 1.39" fill-rule="evenodd"/></svg><svg viewBox="0 0 10 17" id="arrow-left" xmlns="http://www.w3.org/2000/svg"><path d="M.206 9.028a.53.53 0 0 1 0-.77L8.008.456a.53.53 0 0 1 .77 0l.837.838a.53.53 0 0 1 0 .77l-6.58 6.579 6.58 6.58a.53.53 0 0 1 0 .77l-.837.836a.53.53 0 0 1-.385.168.53.53 0 0 1-.385-.168L.206 9.028Z"/></svg><svg viewBox="0 0 502.664 502.664" xml:space="preserve" id="icon" xmlns="http://www.w3.org/2000/svg"><path d="M153.821 358.226 0 274.337v-46.463l153.821-83.414v54.574L46.636 250.523l107.185 53.431v54.272zM180.094 387.584 282.103 115.08h32.227L212.084 387.584h-31.99zM348.843 358.226v-54.272l107.164-52.999-107.164-52.59v-53.927l153.821 83.522v46.183l-153.821 84.083z"/></svg><svg viewBox="0 0 169 30" id="icon-armani" xmlns="http://www.w3.org/2000/svg"><path fill-rule="evenodd" clip-rule="evenodd" d="m144.285 1.18 1.29.045c.883 0 1.528.034 1.89.09.372.055.644.166.825.311.239.168.396.458.452.847.046.402.08 1.181.08 2.351v17.189L131.505.435h-9.217v.747h3.519l.801.523V26.18c0 .055-.011.122-.021.177-.01.056-.022.101-.022.134-.091.959-.284 1.614-.567 1.972-.282.345-1.029.513-2.239.48h-3.608L108.965 0h-.622l-1.424 3.91-7.928 21.745c-.136.402-.284.77-.397 1.07-.113.312-.237.592-.351.814-.362.702-.79 1.125-1.3 1.258-.396.1-1.03.157-1.91.157v-.011h-4.32V1.181h4.32V.434h-8.641l-9.082 21.98L67.602.434h-8.29v.747h3.744l.395.79v24.297c0 1.081-.192 1.816-.576 2.172-.385.367-1.131.536-2.228.502h-1.504v.746h9.749v-.746l-1.29.044c-1.639 0-2.612-.268-2.929-.814-.305-.535-.464-1.347-.464-2.428v-.701a1.417 1.417 0 0 1-.045-.379V3.598L75.35 29.12 86.388 2.674v26.269h-4.275v.746h21.513v-.746l-1.38.044c-1.074 0-1.833-.1-2.295-.278-.454-.19-.69-.536-.69-.992 0-.144.044-.38.133-.7.093-.323.228-.77.397-1.316l2.047-5.57h10.157l3.426 8.812h-4.444v.746h20.968v-.702c-2.249 0-3.595-.19-4.015-.591-.406-.39-.622-1.76-.622-4.1V2.496l21.92 27.415h.259V4.87c0-1.114.023-1.839.046-2.195.023-.346.126-.636.272-.836.023 0 .056-.022.067-.044a.445.445 0 0 1 .069-.09c.146-.2.395-.334.757-.39.351-.055.974-.111 1.866-.133h1.244V.434h-9.524v.747h.001Zm-37.368 18.204h-4.807l4.672-12.978.135.345 4.806 12.634h-4.806v-.001ZM169 1.18V.434h-13.086v.747h4.308v27.762h-4.308v.746H169v-.746h-4.321V1.181H169ZM56.348 29.03a1.908 1.908 0 0 1-.51.09c-.09.021-.18.044-.27.044h-.306c-.972 0-1.617-.58-1.9-1.715-.283-1.136-.475-2.452-.6-3.945-.022-.144-.056-.29-.068-.434a5.618 5.618 0 0 1-.022-.445 24.837 24.837 0 0 0-.418-3.02c-.193-.969-.532-1.762-1.007-2.373-.587-.79-1.38-1.391-2.352-1.803-.972-.414-2.387-.748-4.23-1.004.091 0 .17-.011.248-.022a1.49 1.49 0 0 1 .238-.022c2.115-.29 4.038-.925 5.791-1.883 1.752-.97 2.623-2.685 2.623-5.136 0-2.484-.87-4.222-2.6-5.19-1.731-.98-3.643-1.538-5.724-1.65a3.18 3.18 0 0 0-.564-.044c-.182 0-.373-.023-.543-.045h-15.36v.747h4.32v27.762h-7.227L14.692 0h-.622l-1.425 3.91-7.929 21.745c-.147.402-.282.77-.395 1.07-.113.312-.238.592-.362.814-.35.702-.78 1.125-1.289 1.258-.498.124-1.392.179-2.67.146v.746h9.342v-.746l-1.38.044c-1.063 0-1.821-.1-2.284-.278-.464-.19-.69-.536-.69-.992 0-.144.045-.38.136-.7.078-.323.215-.77.395-1.316l2.047-5.57h10.158l3.427 8.812h-4.456v.746h25.347v-.746H37.45V14.771l1.742.046c1.606 0 2.952.098 4.027.311 1.379.257 2.33.691 2.827 1.293.883 1.069 1.493 2.963 1.821 5.68.057.347.113.703.136 1.059.034.346.078.714.135 1.091.238 2.13.78 3.634 1.629 4.48.836.835 2.205 1.269 4.071 1.269.475 0 .916-.02 1.312-.066a7.233 7.233 0 0 0 1.176-.245c.181 0 .351-.032.52-.088.174-.06.344-.132.509-.212l-.271-.58c-.295.089-.544.167-.736.222Zm-43.703-9.647H7.838L12.51 6.406l.136.345 4.806 12.634h-4.806v-.001Zm28.457-5.392c-.622.055-1.255.089-1.878.1-.61.012-1.21.012-1.775-.022V1.18l1.561.045c1.708 0 3.11.055 4.208.178.655.078 1.198.167 1.628.279a5.167 5.167 0 0 1 2.84 1.916c.271.345.508.769.7 1.27.193.49.352.992.465 1.494.022.222.056.467.09.702.023.222.045.444.045.657 0 2.328-.825 3.933-2.477 4.78a13.776 13.776 0 0 1-3.291 1.18c-.69.155-1.392.255-2.116.31Z"/></svg><svg viewBox="0 0 170 23" id="icon-burberry" xmlns="http://www.w3.org/2000/svg"><path d="m126.096 22.337-5.229-9.175a6.676 6.676 0 0 0 3.793-6.016 6.703 6.703 0 0 0-6.696-6.695H106.78v21.885h4.973V13.84h3.959l4.842 8.496h5.542Zm-14.424-12.72v-4.93h5.36l-.02.008c1.631.087 2.671 1.033 2.671 2.461 0 1.413-1.114 2.403-2.774 2.462h-5.237v-.001Zm-25.204 12.72V.45h16.351v4.176H91.576v4.378h9.858v4.27h-9.858v4.668h11.8v4.394H86.468Zm-23.322 0-5.23-9.175a6.677 6.677 0 0 0 3.793-6.016A6.703 6.703 0 0 0 55.014.451H43.83v21.885h4.974V13.84h3.96l4.84 8.496h5.543ZM48.72 9.617v-4.93h5.361l-.02.008c1.631.087 2.672 1.033 2.672 2.461 0 1.413-1.115 2.403-2.775 2.462H48.72v-.001Zm-18.146 13.26c5.984 0 9.558-3.442 9.558-9.204V.467h-5.108v12.865c0 3.116-1.622 4.902-4.45 4.902h-.002c-2.828 0-4.449-1.786-4.449-4.902V.467h-5.11v13.207c0 5.762 3.574 9.203 9.559 9.203h.002ZM14.333 10.215c2.947 1.005 4.384 3.512 4.384 5.93a6.198 6.198 0 0 1-6.17 6.19H.465V.45h11.128a5.285 5.285 0 0 1 5.235 5.279 5.263 5.263 0 0 1-2.495 4.487Zm-8.854 8.037h5.585c1.755 0 2.674-1.31 2.674-2.604 0-1.042-.83-2.51-2.674-2.51H5.479v5.114Zm4.09-9.196c1.286 0 2.294-.994 2.294-2.262 0-1.226-1.052-2.262-2.295-2.262H5.48v4.524h4.089ZM79.34 10.211c2.948 1.004 4.385 3.513 4.385 5.93a6.198 6.198 0 0 1-6.17 6.191H65.473V.444H76.6a5.286 5.286 0 0 1 5.236 5.28 5.262 5.262 0 0 1-2.496 4.485v.001Zm-8.853 8.038h5.584c1.756 0 2.674-1.31 2.674-2.604 0-1.042-.83-2.51-2.674-2.51h-5.584v5.114Zm4.088-9.197c1.288 0 2.297-.993 2.297-2.261 0-1.227-1.053-2.262-2.297-2.262h-4.088v4.523h4.088ZM147.741 22.337l-5.229-9.175a6.676 6.676 0 0 0 3.793-6.016A6.703 6.703 0 0 0 139.61.451h-11.185v21.885h4.974V13.84h3.96l4.841 8.496h5.542-.001Zm-14.425-12.72v-4.93h5.361l-.021.008c1.632.087 2.673 1.033 2.673 2.461 0 1.413-1.114 2.403-2.776 2.462h-5.237v-.001Zm21.693 12.72v-8.918L146.327.45h6.378l4.998 7.524 5.019-7.524h6.378l-8.703 12.968v8.918h-5.388Z"/></svg><svg viewBox="0 0 18 22" id="icon-cart" xmlns="http://www.w3.org/2000/svg"><path d="M1.273 20.8 2.13 6.2H15.87l.858 14.6H1.273ZM5 5V3a1 1 0 0 1 1-1h6a1 1 0 0 1 1 1v2"/></svg><svg viewBox="0 0 144 24" id="icon-chanel" xmlns="http://www.w3.org/2000/svg"><path fill-rule="evenodd" clip-rule="evenodd" d="M21.345 17.133a1.223 1.223 0 0 0-.068.153c-1.839 3.474-5.45 5.84-9.57 5.84C5.729 23.127.825 18.12.825 11.939.825 5.791 5.729.75 11.707.75c4.138 0 7.765 2.418 9.587 5.943.051.068.068.103.12.205.017.017-3.475 2.537-3.509 2.486-.017-.068-.034-.12-.068-.153-1.005-2.504-3.388-4.172-6.13-4.121-3.662.034-6.676 3.065-6.676 6.828 0 3.798 3.014 6.864 6.676 6.864 2.656 0 4.972-1.635 6.027-3.951.052-.086.07-.154.103-.222l3.508 2.504ZM25.858.955h4.19v7.817h11.001V.955h4.223v21.747H41.05v-9.554H30.047v9.553h-4.189V.956ZM104.399 22.701V.956h15.207v4.393h-10.967v4.343h10.133v4.342h-10.133v4.343h12.516V22.7h-16.756ZM127.099 22.701V.956h4.257v17.42h11.819v4.326h-16.076ZM81.545 22.701h-4.258V.956H83.196l9.316 13.078V.955h4.223v21.747h-3.372l-11.818-16.4v16.4ZM61.262 5.348l-3.712 8.685h7.595l-3.883-8.685Zm-5.62 13.028-1.94 4.325H48.66L58.298.956h5.892l9.707 21.747h-5.04L66.9 18.375H55.642Z"/></svg><svg viewBox="0 0 1920 1920" id="icon-check-mark" xmlns="http://www.w3.org/2000/svg"><path d="M1743.858 267.012 710.747 1300.124 176.005 765.382 0 941.387l710.747 710.871 1209.24-1209.116z" fill-rule="evenodd"/></svg><svg viewBox="0 -0.5 21 21" id="icon-close" xmlns="http://www.w3.org/2000/svg"><path d="M12.018 10 21 18.554 19.48 20l-8.98-8.554L1.518 20 0 18.554 8.98 10 0 1.446 1.518 0 10.5 8.554 19.48 0 21 1.446z" fill-rule="evenodd"/></svg><svg viewBox="0 0 89 37" id="icon-dior" xmlns="http://www.w3.org/2000/svg"><path d="M74.816 22.39c-.028-.166-.028-.311.804-.57.828-.257 2.843-.94 4.067-1.617 1.224-.683 1.428-.779 1.715-.587.287.188.204.652.204.98v3.319c.448-.736 1.92-3.184 3.088-3.904.917-.569 1.242-.615 1.81-.627.683-.013 2.297.408 2.368 2.11.055 1.333-.927 1.867-1.552 1.784-.5-.071-.859-.532-1.155-.995-.3-.47-.776-.748-1.252-.588-.476.164-3.143 1.895-3.295 4.355-.108 1.811 0 7.457 0 7.457 0 .857.328 1.187.711 1.416.38.232 1.78.244 2.173.3.398.055.383.148.383.272 0 .12 0 .179-.352.179h-9.377c-.3 0-.42-.059-.42-.235 0-.244.392-.2.692-.244.3-.04 1.885.09 2.34-.708.333-.522.293-1.363.293-1.363l-.046-9.917c0-.8-.238-.918-.457-1.045-.223-.127-.59-.194-1.367.068-.732.241-1.236.467-1.375.16ZM42.023 22.394c-.126-.244.109-.401.804-.584.776-.207 2.476-.723 3.823-1.486 1.348-.76 1.58-.841 1.864-.748.287.096.26.6.26 1.007v12.832c0 .72.095 1.02.42 1.32.327.3 1.143.476 2.203.476.479 0 .627.055.627.26 0 .203-.148.203-.34.203H42.38c-.287 0-.355-.123-.355-.244 0-.151.126-.247.559-.247.365 0 2.049.127 2.432-.748.148-.334.22-.8.22-1.236v-10.18c0-.773-.6-1.116-1.292-.95-.81.186-1.753.644-1.92.325ZM46.767 13.518a2.29 2.29 0 0 0 2.29-2.287 2.288 2.288 0 0 0-2.29-2.287 2.287 2.287 0 0 0 0 4.574ZM57.952 28.072c.46 4.162 2.939 7.401 6.01 6.857 3.079-.544 4.621-3.483 4.25-8.19-.38-4.787-2.747-7.176-5.934-6.888-3.294.3-4.79 4.055-4.326 8.22Zm3.047-8.954c3.965-.741 9.605.133 10.888 6.339 1.28 6.206-2.992 9.51-6.697 10.316-3.622.785-9.772.226-10.885-6.45-1.001-5.992 3.347-9.58 6.694-10.205ZM14.054 34.67h2.3c8.554 0 10.85-.795 13.86-4.794 3.01-3.999 3.369-9.741 3.369-11.682 0-1.94-.516-6.811-3.526-10.93-3.014-4.12-8.042-5.19-12.44-5.19h-3.582c-.85 0-.893.377-.893.97v30.872c0 .673.238.754.912.754Zm-13.929.723c0-.312.405-.365.782-.377 4.354-.124 5.167-.275 5.665-.791.272-.285.67-.516.67-2.535V3.925c0-2.494-3.028-2.098-5.167-2.318-.75-.074-.813-.176-.813-.395 0-.216.142-.322.535-.337h17.545c19.29 0 20.277 14.102 20.277 17.863 0 8.082-5.344 16.97-16.513 16.97H.687c-.275 0-.562-.037-.562-.315Z"/></svg><svg viewBox="0 0 21 21" id="icon-facebook" xmlns="http://www.w3.org/2000/svg"><g clip-path="url(#ka)"><path fill-rule="evenodd" clip-rule="evenodd" d="M0 0v21h21V0H0Zm13.893 5.78H12.25c-.325 0-.653.335-.653.585V8.04h2.291c-.092 1.283-.281 2.457-.281 2.457h-2.022v7.273H8.574v-7.274H7.108V8.048h1.466V6.047c0-.366-.074-2.816 3.086-2.816h2.232v2.548Z"/></g><defs><clipPath id="ka"><path d="M0 0h21v21H0z"/></clipPath></defs></svg><svg viewBox="0 0 6 13" id="icon-facebook-2" xmlns="http://www.w3.org/2000/svg"><path d="M4 4.225V3.088c0-.57.077-.894.923-.894H6V0H4.23C2.078 0 1.386 1.056 1.386 2.925v1.381H0V6.5h1.308V13H4V6.5h1.77L6 4.225H4Z"/></svg><svg viewBox="0 0 103 29" id="icon-fendi" xmlns="http://www.w3.org/2000/svg"><path d="M.58.858c6.05 0 12.099.005 18.149-.003.006 1.653.013 3.307-.003 4.962-4.272-.001-8.546-.004-12.82.001.003 2.076-.002 4.153.003 6.228 3.741-.008 7.483-.001 11.223-.002.021 1.648-.004 3.296.013 4.944-3.745-.003-7.49.005-11.233-.003-.01 3.91-.006 7.82-.003 11.73-1.774-.02-3.548-.02-5.321 0C.568 19.428.585 10.142.58.857ZM22.258 28.716c-.006-9.29-.008-18.579.002-27.868 6.251.02 12.505.01 18.758.005.001 1.655-.007 3.31.004 4.964-4.515 0-9.03-.008-13.545.005.014 1.942.001 3.885.006 5.829 4.147-.01 8.292-.004 12.438-.004-.016 1.647.002 3.295-.012 4.942-4.141.004-8.283.007-12.424-.003-.01 2.384.01 4.768-.01 7.15 4.718.016 9.437.003 14.157.007.012 1.654.012 3.307 0 4.962-6.457.005-12.916-.017-19.374.01ZM45.637.848c1.88.015 3.758.019 5.638 0 3.39 6.473 6.778 12.946 10.175 19.415.012-6.468.01-12.935 0-19.402 1.657-.009 3.313.003 4.97-.006.008 9.285.007 18.57.001 27.855-1.772-.013-3.545-.005-5.316-.005A8221.89 8221.89 0 0 0 50.647 8.832c.002 6.627.003 13.253-.001 19.88-1.67-.014-3.34-.02-5.012.005.012-9.29.007-18.58.003-27.869ZM71.508.853c3.87.012 7.74 0 11.611.007 2.123.034 4.296.643 5.932 2.068 1.714 1.365 2.715 3.423 3.34 5.499.529 1.89.721 3.861.754 5.822-.077 3.028-.497 6.129-1.873 8.854-.861 1.887-2.297 3.516-4.095 4.52-1.319.729-2.824 1.036-4.313 1.075-3.782.019-7.565-.014-11.347.017-.026-9.287-.008-18.575-.009-27.862Zm5.275 4.855c-.015 6.047-.008 12.094-.004 18.14 1.682-.007 3.364 0 5.047-.003.688-.019 1.39-.106 2.026-.39 1.23-.515 2.103-1.633 2.682-2.814.977-2.154 1.19-4.58 1.127-6.923-.059-2.245-.394-4.648-1.85-6.432-.877-1.103-2.326-1.47-3.656-1.558-1.791-.033-3.582.007-5.372-.02ZM96.704 28.722c-.02-9.292-.017-18.584-.001-27.875 1.771.026 3.544.006 5.315.008.008 9.282.012 18.566-.001 27.85-1.772.008-3.543-.027-5.313.017Z"/></svg><svg viewBox="0 0 126 29" id="icon-gucci" xmlns="http://www.w3.org/2000/svg"><path d="m114.11 8.576-.227.082c-.881-2.07-2.14-3.718-3.777-4.944-1.611-1.225-3.638-1.838-6.081-1.838a8.482 8.482 0 0 0-3.89.94c-1.234.599-2.317 1.456-3.249 2.573-.907 1.09-1.637 2.41-2.19 3.964-.554 1.552-.831 3.267-.831 5.147 0 1.879.277 3.595.83 5.147.555 1.553 1.285 2.887 2.191 4.004a9.99 9.99 0 0 0 3.248 2.533 8.8 8.8 0 0 0 3.891.899c2.418 0 4.381-.409 5.892-1.225 1.536-.846 2.833-2.126 3.891-3.841l.226.081-.075 2.614a10.874 10.874 0 0 1-2.002 1.758 14.23 14.23 0 0 1-2.455 1.267c-.856.326-1.75.57-2.681.735a13.93 13.93 0 0 1-2.796.285c-1.939 0-3.789-.34-5.552-1.02-1.763-.682-3.311-1.635-4.646-2.86-1.335-1.253-2.392-2.751-3.173-4.494-.78-1.77-1.17-3.731-1.17-5.883s.39-4.1 1.171-5.843c.78-1.77 1.837-3.281 3.172-4.534a13.64 13.64 0 0 1 4.646-2.86 15.282 15.282 0 0 1 5.551-1.02c.933 0 1.865.08 2.797.243.931.164 1.825.423 2.681.777.881.327 1.7.75 2.455 1.267a9.736 9.736 0 0 1 2.002 1.716l.151 4.33ZM27.268 16.379a3.811 3.811 0 0 0-.81.53c-.257.218-.385.518-.385.9v5.025c-1.237 1.879-2.82 3.336-4.75 4.372-1.93 1.034-4.067 1.552-6.409 1.552-1.982 0-3.874-.341-5.676-1.022-1.802-.68-3.384-1.634-4.749-2.86a13.868 13.868 0 0 1-3.243-4.493C.448 18.613.05 16.651.05 14.5c0-2.15.4-4.098 1.198-5.841.797-1.77 1.878-3.282 3.242-4.535a13.985 13.985 0 0 1 4.749-2.86 15.924 15.924 0 0 1 5.676-1.02c.952 0 1.904.081 2.856.244a13.21 13.21 0 0 1 2.741.777c.902.326 1.738.748 2.51 1.266a9.938 9.938 0 0 1 2.047 1.715l.155 4.331-.232.082c-.9-2.07-2.187-3.717-3.86-4.943-1.648-1.226-3.72-1.839-6.217-1.839-1.39 0-2.716.313-3.977.94-1.26.6-2.367 1.457-3.32 2.573-.926 1.09-1.673 2.411-2.24 3.964-.566 1.552-.85 3.268-.85 5.146 0 1.852.272 3.554.813 5.106.566 1.554 1.312 2.888 2.238 4.005a10.717 10.717 0 0 0 3.32 2.573c1.262.6 2.6.899 4.016.899 2.677 0 4.968-.544 6.872-1.634v-7.64c0-.38-.141-.68-.424-.898a4.398 4.398 0 0 0-.772-.532l.035-.204c.128.025.36.052.695.082.335.025.683.052 1.043.081h3.32c.31-.025.605-.052.888-.081a7.08 7.08 0 0 0 .656-.082l.041.205ZM55.784 1.738a4.225 4.225 0 0 0-.754.52c-.252.212-.39.611-.415 1.197-.023.638-.049 1.45-.076 2.434 0 .958-.011 2.05-.033 3.274 0 1.223-.012 2.553-.035 3.99v4.47c-.023 1.73-.224 3.206-.604 4.43-.377 1.224-.88 2.248-1.508 3.072-.604.826-1.282 1.478-2.037 1.956-.729.48-1.458.838-2.187 1.078a7.488 7.488 0 0 1-1.999.48c-.629.079-1.119.119-1.471.119-1.433 0-2.816-.2-4.149-.598-1.332-.373-2.501-.985-3.507-1.837-1.005-.852-1.81-1.956-2.413-3.312-.604-1.357-.905-3.007-.905-4.95v-8.66c0-1.277-.012-2.42-.035-3.431 0-1.038-.012-1.877-.035-2.515-.022-.586-.16-.984-.414-1.196a4.267 4.267 0 0 0-.754-.52l.034-.2c.125.024.327.05.605.08.301.024.602.05.904.08.327 0 .641.012.942.036h1.358c.302-.024.617-.037.943-.037.327-.024.63-.05.906-.08.3-.024.514-.05.64-.08l.035.2a3.72 3.72 0 0 0-.792.52c-.227.212-.352.611-.377 1.197-.024.638-.049 1.476-.076 2.514v12.093c0 2.9.642 5.042 1.924 6.425 1.282 1.384 3.18 2.076 5.694 2.076.73 0 1.559-.094 2.489-.28.93-.213 1.798-.639 2.603-1.277.83-.64 1.52-1.544 2.074-2.714.578-1.17.867-2.727.867-4.669 0-2.102-.011-3.898-.034-5.388 0-1.516-.012-2.807-.035-3.872a95.35 95.35 0 0 0-.035-2.793c-.022-.771-.047-1.477-.075-2.115-.022-.586-.16-.985-.414-1.197a4.297 4.297 0 0 0-.754-.52l.034-.2c.277.054.591.107.943.161.352.024.68.036.981.036.276 0 .59-.012.942-.036.377-.053.704-.106.98-.16l.025.2ZM84.298 8.576l-.238.082c-.928-2.07-2.254-3.718-3.976-4.944-1.696-1.225-3.83-1.838-6.401-1.838a9.31 9.31 0 0 0-4.095.94 10.19 10.19 0 0 0-3.419 2.573c-.955 1.09-1.723 2.41-2.306 3.964-.583 1.552-.875 3.267-.875 5.147 0 1.879.292 3.595.875 5.147.583 1.553 1.351 2.887 2.306 4.004.98 1.09 2.12 1.934 3.418 2.533 1.3.6 2.665.899 4.096.899 2.544 0 4.612-.409 6.202-1.225 1.617-.846 2.982-2.126 4.096-3.841l.238.081-.08 2.614c-.61.654-1.312 1.24-2.107 1.758-.794.49-1.656.913-2.584 1.267-.9.326-1.841.57-2.822.735-.981.19-1.962.285-2.943.285-2.041 0-3.99-.34-5.845-1.02-1.855-.682-3.485-1.635-4.89-2.86a13.886 13.886 0 0 1-3.34-4.494c-.821-1.77-1.232-3.731-1.232-5.883s.41-4.1 1.233-5.843c.822-1.77 1.935-3.281 3.34-4.534 1.404-1.253 3.034-2.206 4.89-2.86a16.848 16.848 0 0 1 5.844-1.02c.981 0 1.961.08 2.942.243.981.164 1.922.423 2.822.777.928.327 1.79.75 2.585 1.267.795.49 1.498 1.062 2.107 1.716l.16 4.33ZM125.74 26.159a8.975 8.975 0 0 0-.652-.073c-.282 0-.589-.012-.922-.034-.333 0-.653-.011-.96-.034h-2.302c-.307.023-.615.047-.922.073a7.628 7.628 0 0 0-.652.075l-.036-.149c.256-.123.512-.283.767-.481.257-.198.398-.568.423-1.111.024-.593.036-1.21.036-1.852.023-.642.035-1.37.035-2.184V7.319c0-.816-.012-1.532-.035-2.149 0-.642-.012-1.259-.036-1.85-.023-.544-.164-.914-.422-1.111a3.46 3.46 0 0 0-.767-.52l.035-.147c.153.05.37.086.652.11.307 0 .614.012.921.035.333.023.653.034.96.034h1.343c.307-.023.627-.034.959-.034.334-.023.641-.048.923-.074.306-.023.524-.048.652-.074l.035.149c-.281.123-.55.296-.806.518-.231.197-.358.567-.384 1.11-.024.593-.049 1.21-.077 1.852v17.403c.024.641.049 1.258.077 1.85.023.544.151.914.384 1.112.255.197.524.358.806.482l-.035.144Z"/></svg><svg viewBox="0 0 23 22" id="icon-heart" xmlns="http://www.w3.org/2000/svg"><path d="M11.5 3.081A6.424 6.424 0 0 0 7.675 1.8C4.44 1.8 1.8 4.262 1.8 7.496c0 1.95.926 3.623 2.278 5.214 1.332 1.567 3.213 3.208 5.361 5.08l.038.034.002.001 1.23 1.078.791.692.79-.692 1.231-1.078.002-.001.038-.033c2.148-1.873 4.029-3.514 5.361-5.081 1.352-1.591 2.278-3.263 2.278-5.214 0-3.234-2.64-5.696-5.875-5.696-1.4 0-2.751.477-3.825 1.281Z"/></svg><svg viewBox="0 0 18 18" id="icon-heart-outline" xmlns="http://www.w3.org/2000/svg"><mask id="na" maskUnits="userSpaceOnUse" x=".8" y="1.7" width="16" height="14"><path d="M.8 1.7h16v14H.8z"/><path d="M9.072 13.377 9 13.446l-.08-.069c-3.42-2.96-5.68-4.916-5.68-6.9 0-1.374 1.08-2.404 2.52-2.404 1.109 0 2.189.687 2.57 1.62h1.34c.381-.933 1.461-1.62 2.57-1.62 1.44 0 2.52 1.03 2.52 2.404 0 1.984-2.261 3.94-5.688 6.9ZM12.24 2.7A4.42 4.42 0 0 0 9 4.128 4.42 4.42 0 0 0 5.76 2.7C3.542 2.7 1.8 4.355 1.8 6.477c0 2.588 2.448 4.71 6.156 7.917L9 15.3l1.044-.906c3.708-3.207 6.156-5.329 6.156-7.917 0-2.122-1.743-3.777-3.96-3.777Z"/></mask><path d="M9.072 13.377 9 13.446l-.08-.069c-3.42-2.96-5.68-4.916-5.68-6.9 0-1.374 1.08-2.404 2.52-2.404 1.109 0 2.189.687 2.57 1.62h1.34c.381-.933 1.461-1.62 2.57-1.62 1.44 0 2.52 1.03 2.52 2.404 0 1.984-2.261 3.94-5.688 6.9ZM12.24 2.7A4.42 4.42 0 0 0 9 4.128 4.42 4.42 0 0 0 5.76 2.7C3.542 2.7 1.8 4.355 1.8 6.477c0 2.588 2.448 4.71 6.156 7.917L9 15.3l1.044-.906c3.708-3.207 6.156-5.329 6.156-7.917 0-2.122-1.743-3.777-3.96-3.777Z"/><path d="M9.072 13.377 9 13.446l-.08-.069c-3.42-2.96-5.68-4.916-5.68-6.9 0-1.374 1.08-2.404 2.52-2.404 1.109 0 2.189.687 2.57 1.62h1.34c.381-.933 1.461-1.62 2.57-1.62 1.44 0 2.52 1.03 2.52 2.404 0 1.984-2.261 3.94-5.688 6.9ZM12.24 2.7A4.42 4.42 0 0 0 9 4.128 4.42 4.42 0 0 0 5.76 2.7C3.542 2.7 1.8 4.355 1.8 6.477c0 2.588 2.448 4.71 6.156 7.917L9 15.3l1.044-.906c3.708-3.207 6.156-5.329 6.156-7.917 0-2.122-1.743-3.777-3.96-3.777Z" mask="url(#na)"/></svg><svg viewBox="0 0 21 21" id="icon-instagram" xmlns="http://www.w3.org/2000/svg"><g clip-path="url(#qa)"><path d="M3.83 21H21V0H0v21H3.829ZM14.355 3.281c0-.255.091-.476.274-.663a.9.9 0 0 1 .67-.28h2.379c.264 0 .487.093.67.28a.92.92 0 0 1 .273.663v2.256a.91.91 0 0 1-.273.67.91.91 0 0 1-.67.273h-2.38a.91.91 0 0 1-.67-.273.909.909 0 0 1-.273-.67V3.28Zm-.854 5.091c.824.798 1.237 1.762 1.237 2.892s-.413 2.094-1.237 2.891c-.825.798-1.821 1.196-2.988 1.196-1.157 0-2.148-.398-2.973-1.196-.825-.797-1.237-1.76-1.237-2.891 0-1.13.412-2.094 1.237-2.892.825-.797 1.816-1.196 2.973-1.196 1.167 0 2.163.4 2.988 1.196Zm-7.856-5.09c0-.256.091-.477.274-.664a.9.9 0 0 1 .67-.28h.5c.265 0 .488.093.67.28a.919.919 0 0 1 .274.663v2.256a.91.91 0 0 1-.273.67.91.91 0 0 1-.67.273H6.59a.91.91 0 0 1-.67-.273.91.91 0 0 1-.274-.67V3.28Zm-3.307 0c0-.256.09-.477.273-.664a.9.9 0 0 1 .67-.28h.501c.264 0 .488.093.67.28a.919.919 0 0 1 .273.663v2.256a.91.91 0 0 1-.273.67.91.91 0 0 1-.67.273h-.5a.91.91 0 0 1-.67-.273.91.91 0 0 1-.274-.67V3.28Zm0 15V9.424h1.927a5.882 5.882 0 0 0-.273 1.791c0 1.75.638 3.243 1.914 4.478 1.276 1.235 2.812 1.852 4.607 1.852a6.564 6.564 0 0 0 3.282-.848 6.375 6.375 0 0 0 2.378-2.303 6.06 6.06 0 0 0 .875-3.179c0-.62-.09-1.217-.273-1.791h1.846v8.86a.795.795 0 0 1-.247.594.81.81 0 0 1-.587.24H3.173a.804.804 0 0 1-.595-.24.806.806 0 0 1-.24-.594Z"/></g><defs><clipPath id="qa"><path d="M0 0h21v21H0z"/></clipPath></defs></svg><svg viewBox="0 0 12 12" id="icon-instagram-2" xmlns="http://www.w3.org/2000/svg"><path d="M6 3.562A2.44 2.44 0 0 0 3.562 6 2.44 2.44 0 0 0 6 8.438 2.44 2.44 0 0 0 8.438 6 2.436 2.436 0 0 0 6 3.562Z"/><path d="M11.954 3.046c-.03-.714-.152-1.102-.25-1.36a2.218 2.218 0 0 0-.547-.843 2.218 2.218 0 0 0-.843-.547c-.258-.099-.646-.22-1.36-.25C8.18.008 7.952 0 6 0 4.048 0 3.82.008 3.046.046c-.714.03-1.102.151-1.36.25-.342.13-.585.289-.843.547a2.217 2.217 0 0 0-.547.843c-.099.258-.22.646-.25 1.36C.008 3.82 0 4.048 0 6c0 1.952.008 2.18.046 2.954.03.714.151 1.102.25 1.36.13.342.289.585.547.843.258.258.501.418.843.547.258.098.646.22 1.36.25C3.813 11.992 4.048 12 6 12c1.952 0 2.187-.008 2.954-.046.714-.03 1.102-.152 1.36-.25.342-.13.585-.289.843-.547.258-.258.418-.501.547-.843.098-.258.22-.646.25-1.36C11.992 8.18 12 7.952 12 6c0-1.952-.008-2.18-.046-2.954ZM6 9.752A3.75 3.75 0 0 1 2.248 6 3.75 3.75 0 0 1 6 2.248 3.75 3.75 0 0 1 9.752 6 3.745 3.745 0 0 1 6 9.752Zm3.904-6.775a.882.882 0 1 1 .001-1.763.882.882 0 0 1-.001 1.763Z"/></svg><svg viewBox="0 0 24 24" id="icon-minus" xmlns="http://www.w3.org/2000/svg"><path d="M19 11H5a1 1 0 0 0 0 2h14a1 1 0 0 0 0-2Z"/></svg><svg viewBox="0 0 11 11" id="icon-pen" xmlns="http://www.w3.org/2000/svg"><path d="M.82 11a.771.771 0 0 1-.717-1.058l1.543-3.857a.776.776 0 0 1 .171-.259l5.4-5.4a.77.77 0 0 1 1.09 0l2.315 2.315a.77.77 0 0 1 0 1.09L7.537 6.917a.77.77 0 1 1-1.091-1.09l2.54-2.541-1.223-1.223L3.02 6.805l-.816 2.039 2.04-.815.113-.115-.226-.226a.77.77 0 1 1 1.09-1.09l.772.771a.77.77 0 0 1 0 1.09l-.772.772a.78.78 0 0 1-.259.171l-3.857 1.543A.77.77 0 0 1 .82 11Z"/></svg><svg viewBox="0 0 11 13" id="icon-pinterest" xmlns="http://www.w3.org/2000/svg"><path d="M5.919 9.438a3.727 3.727 0 0 1-1.7-.809c-.324 1.78-.729 3.48-2.024 4.371-.404-2.671.567-4.695.972-6.88-.729-1.214.08-3.724 1.619-3.157 1.942.728-1.7 4.614.728 5.1 2.51.485 3.562-4.372 2.024-5.99C5.27-.195.98 1.991 1.467 5.31c.162.81.971 1.053.324 2.186C.334 7.172-.071 6.039.01 4.5A4.846 4.846 0 0 1 4.38.049c2.753-.324 5.262.971 5.667 3.561.405 2.914-1.214 6.071-4.128 5.828Z"/></svg><svg viewBox="0 0 24 24" id="icon-plus" xmlns="http://www.w3.org/2000/svg"><path d="M19 11h-6V5a1 1 0 0 0-2 0v6H5a1 1 0 0 0 0 2h6v6a1 1 0 0 0 2 0v-6h6a1 1 0 0 0 0-2Z"/></svg><svg viewBox="0 0 17 17" id="icon-search" xmlns="http://www.w3.org/2000/svg"><circle cx="6.154" cy="6.154" r="4.954"/><path d="M11.487 11.487 16 16"/></svg><svg viewBox="0 0 21 21" id="icon-twitter" xmlns="http://www.w3.org/2000/svg"><g clip-path="url(#xa)"><path fill-rule="evenodd" clip-rule="evenodd" d="M0 0v21h21V0H0Zm16.28 7.535c.006.128.01.257.01.386 0 3.942-3 8.486-8.487 8.486a8.44 8.44 0 0 1-4.572-1.34 5.984 5.984 0 0 0 4.416-1.235 2.986 2.986 0 0 1-2.787-2.071 2.976 2.976 0 0 0 1.347-.051 2.985 2.985 0 0 1-2.392-2.962 2.97 2.97 0 0 0 1.35.373 2.981 2.981 0 0 1-.922-3.983 8.468 8.468 0 0 0 6.148 3.117 2.983 2.983 0 0 1 5.083-2.72 5.971 5.971 0 0 0 1.893-.724 2.991 2.991 0 0 1-1.311 1.65 5.964 5.964 0 0 0 1.713-.47 6.055 6.055 0 0 1-1.488 1.544Z"/></g><defs><clipPath id="xa"><path d="M0 0h21v21H0z"/></clipPath></defs></svg><svg viewBox="0 0 13 10" id="icon-twitter-2" xmlns="http://www.w3.org/2000/svg"><path d="M13 1.153a4.975 4.975 0 0 1-1.52.385A2.55 2.55 0 0 0 12.62.154a6.17 6.17 0 0 1-1.673.615A2.87 2.87 0 0 0 8.971 0C7.549-.023 6.37 1.1 6.31 2.537c-.015.184.008.369.076.538A7.483 7.483 0 0 1 .912.462a2.42 2.42 0 0 0-.38 1.306c.015.861.472 1.653 1.217 2.075a3.196 3.196 0 0 1-1.217-.307 2.534 2.534 0 0 0 2.129 2.46 2.06 2.06 0 0 1-.684.076 1.399 1.399 0 0 1-.533-.076 2.59 2.59 0 0 0 2.51 1.767A5.41 5.41 0 0 1 .607 8.84H0a8.232 8.232 0 0 0 4.105 1.153c4.014.185 7.412-2.951 7.595-7.01 0-.046 0-.092.008-.138v-.307A7.388 7.388 0 0 0 13 1.153Z"/></svg><svg viewBox="0 0 136 28" id="icon-versace" xmlns="http://www.w3.org/2000/svg"><path fill-rule="evenodd" clip-rule="evenodd" d="M122.243.934h13.232v2.117a3.775 3.775 0 0 0-1.192-.197h-7.606v9.892h7.398c.532 0 1.005-.06 1.4-.159v2.107c-.336-.078-.798-.118-1.369-.118h-7.429v10.228h7.379c.404 0 .887-.06 1.419-.187v2.275h-13.212c.099-.377.158-.782.158-1.227V2.19c0-.514-.059-.94-.178-1.256Zm-3.064 6.737-3.823-.03c-.188-2.156-1.419-4.243-4.128-4.629-5.803-.524-7.44 5.876-7.292 10.554.148 4.51.868 11.445 6.857 11.445 2.513 0 4.926-2.591 4.849-4.778l3.536-.029c-.256 4.51-5.41 7.121-7.863 7.21-8.383.288-11.892-5.322-12.068-13.324C99.089 6.84 102.044.4 110.33.4c7.096.1 8.464 4.313 8.849 7.271Zm-59.626 16.27 2.532-2.125C63.405 24.003 64.49 25 67.11 25c2.66 0 4.898-1.623 4.898-4.49 0-1.415-.573-2.573-1.706-3.442-.512-.407-1.812-1.109-3.861-2.088-3.065-1.474-6.05-3.393-6.05-7.25 0-4.867 4.118-7.013 8.463-7.172 2.572-.099 5.763 1.326 7.055 2.928l-2.572 1.988a5.39 5.39 0 0 0-1.973-2.079 5.36 5.36 0 0 0-2.756-.77c-3.281 0-5.882 3.819-3.163 6.45.69.673 2.1 1.504 4.247 2.493 3.429 1.613 6.355 3.542 6.355 7.805a7.813 7.813 0 0 1-1.143 4.104c-1.528 2.533-4.08 3.799-7.645 3.799-4.1-.001-4.908-.94-7.706-3.335ZM23.473.935h13.223v2.117a3.772 3.772 0 0 0-1.192-.197h-7.606v9.892h7.398c.533 0 1.006-.06 1.4-.159v2.107c-.335-.078-.798-.118-1.36-.118h-7.438v10.228h7.379c.404 0 .887-.06 1.418-.187v2.275H23.493c.089-.377.148-.782.148-1.227V2.19c0-.514-.059-.94-.167-1.256ZM.35.934h4.808v.238c0 .218.07.504.187.87l6.779 20.486 6.955-20.575c.108-.346.167-.682.167-1.019h2.335c-.236.416-.414.782-.523 1.108l-7.94 23.79c-.08.227-.149.585-.208 1.059H8.969a6.61 6.61 0 0 0-.266-1.058L.923 2.23A40.101 40.101 0 0 0 .36.934H.35Zm51.065 13.533c3.153-.623 5.566-3.047 5.566-6.509 0-4.54-3.782-7.024-8.02-7.024h-7.744a4.7 4.7 0 0 1 .168 1.247v23.463c0 .504-.06.93-.168 1.247h4.611a4.617 4.617 0 0 1-.167-1.247V14.862l1.478.16 7.725 11.869h4.64l-8.09-12.424Zm-.798-1.979c-.837.594-1.843.89-2.995.89h-1.97V2.824h1.762c1.508 0 2.68.377 3.518 1.128 1.143 1.04 1.724 2.444 1.724 4.204 0 1.9-.68 3.344-2.04 4.333Zm47.862 13.325-8.61-24.018a3.132 3.132 0 0 1-.168-.86h-3.724c0 .306-.05.632-.168.959l-8.344 23.919a4.71 4.71 0 0 1-.522 1.077h2.404c-.015-.365.035-.73.148-1.077l2.471-7.054h9.508l2.443 7.054c.129.385.188.74.188 1.077h4.985c-.285-.404-.493-.771-.611-1.077ZM82.616 16.85l4.02-11.722 4.128 11.722h-8.148Z"/></svg></svg>